<svg width="275" height="34" viewBox="0 0 275 34" fill="none" xmlns="http://www.w3.org/2000/svg">
<g filter="url(#filter0_d_106_2)">
<path d="M4.83594 11.7158C4.83594 11.5928 4.84277 11.4116 4.85645 11.1724C4.87012 10.9263 4.87695 10.7588 4.87695 10.6699C4.87695 10.6357 4.87012 10.5127 4.85645 10.3008C4.84277 10.0889 4.83594 9.9043 4.83594 9.74707C4.83594 9.02246 4.9043 8.66016 5.04102 8.66016C5.0957 8.66016 5.14355 8.66699 5.18457 8.68066C6.61328 8.68066 8.729 8.66357 11.5317 8.62939C14.3413 8.59521 16.4434 8.57812 17.8379 8.57812C18.1865 8.57812 18.4053 8.60889 18.4941 8.67041C18.5898 8.73193 18.6377 8.85156 18.6377 9.0293V9.31641C18.6377 9.67188 18.6411 10.1982 18.6479 10.8955C18.6548 11.5859 18.6582 12.1123 18.6582 12.4746C18.6582 12.8301 18.5625 13.0078 18.3711 13.0078C17.9883 13.0078 17.4175 13.001 16.6587 12.9873C15.8999 12.9736 15.3291 12.9668 14.9463 12.9668V23.959C14.8984 24.1641 14.7822 24.2734 14.5977 24.2871C14.3584 24.2871 14.0098 24.2837 13.5518 24.2769C13.0938 24.27 12.7451 24.2666 12.5059 24.2666C12.4922 24.2666 12.4785 24.2734 12.4648 24.2871C12.1641 24.2871 11.7402 24.2837 11.1934 24.2769C10.6533 24.27 10.25 24.2666 9.9834 24.2666H9.36816C9.23145 24.2803 9.0332 24.2871 8.77344 24.2871L8.36328 23.7949C8.36328 22.7559 8.39746 21.2109 8.46582 19.1602C8.53418 17.1094 8.56836 15.5645 8.56836 14.5254C8.56836 14.4775 8.56494 14.3989 8.55811 14.2896C8.55811 14.1802 8.55811 14.0913 8.55811 14.0229C8.55811 13.9546 8.55127 13.8691 8.5376 13.7666C8.53076 13.6641 8.51367 13.582 8.48633 13.5205C8.46582 13.4521 8.43848 13.3872 8.4043 13.3257C8.37012 13.2573 8.32227 13.2095 8.26074 13.1821C8.20605 13.1479 8.1377 13.1309 8.05566 13.1309H5.12305C4.93164 13.0762 4.83594 12.6045 4.83594 11.7158ZM34.4287 24.041C34.2783 24.1914 33.9604 24.2803 33.4751 24.3076C32.9966 24.335 32.4053 24.3281 31.7012 24.2871C30.9971 24.2461 30.6211 24.2256 30.5732 24.2256C30.1084 24.2256 29.7734 24.2188 29.5684 24.2051H28.543C28.3926 24.1572 28.2661 23.9351 28.1636 23.5386C28.061 23.1353 27.9585 22.561 27.856 21.8159C27.7603 21.064 27.709 20.6641 27.7021 20.6162C27.6748 19.9395 27.5654 19.4951 27.374 19.2832C27.1826 19.0645 26.834 18.9551 26.3281 18.9551H25.877V23.959C25.8633 24.041 25.7915 24.1094 25.6616 24.1641C25.5317 24.2188 25.3438 24.2529 25.0977 24.2666C24.8584 24.2871 24.6431 24.2974 24.4517 24.2974C24.2671 24.3042 24.021 24.3042 23.7134 24.2974C23.4058 24.2905 23.2178 24.2871 23.1494 24.2871H21.6729C20.8389 24.2871 20.21 24.2939 19.7861 24.3076C19.6904 24.2666 19.5947 24.2188 19.499 24.1641V8.86523C19.499 8.67383 19.7725 8.57812 20.3193 8.57812H29.2607C30.8125 8.61914 31.9917 8.98828 32.7983 9.68555C33.6118 10.3828 34.0186 11.3672 34.0186 12.6387C34.0186 14.293 33.1846 15.5029 31.5166 16.2686C31.8242 16.3643 32.1011 16.4976 32.3472 16.6685C32.5933 16.8394 32.7983 17.0239 32.9624 17.2222C33.1265 17.4136 33.27 17.646 33.3931 17.9194C33.5161 18.1929 33.6118 18.4492 33.6802 18.6885C33.7485 18.9277 33.8066 19.2114 33.8545 19.5396C33.9092 19.8677 33.9468 20.1514 33.9673 20.3906C33.9878 20.6299 34.0117 20.917 34.0391 21.252C34.0732 21.5801 34.1006 21.8398 34.1211 22.0312V22.9336C34.1416 23.043 34.2031 23.1968 34.3057 23.395C34.415 23.5933 34.4834 23.7402 34.5107 23.8359C34.5107 23.9727 34.4834 24.041 34.4287 24.041ZM25.8154 12.9258C25.8154 13.3359 25.8188 13.6401 25.8257 13.8384C25.8325 14.0366 25.8701 14.2964 25.9385 14.6177C26.0068 14.939 26.1094 15.168 26.2461 15.3047C26.5332 15.3047 26.8032 15.2739 27.0562 15.2124C27.3159 15.1509 27.5654 15.0518 27.8047 14.915C28.0439 14.7783 28.2319 14.5767 28.3687 14.3101C28.5122 14.0366 28.584 13.7119 28.584 13.3359C28.584 13.124 28.5464 12.9395 28.4712 12.7822C28.396 12.6182 28.2866 12.4883 28.1431 12.3926C27.9995 12.2969 27.856 12.2217 27.7124 12.167C27.5757 12.1055 27.4048 12.0645 27.1997 12.0439C27.0015 12.0166 26.8442 11.9995 26.728 11.9927C26.6118 11.9858 26.4717 11.9824 26.3076 11.9824H26.0615C25.959 12.0303 25.8906 12.126 25.8564 12.2695C25.8291 12.4131 25.8154 12.6318 25.8154 12.9258ZM34.0186 24C34.4424 22.4346 34.9106 20.8452 35.4233 19.2319C35.936 17.6187 36.5718 15.6909 37.3306 13.4487C38.0962 11.1997 38.6191 9.64453 38.8994 8.7832C38.9814 8.64648 39.0361 8.56445 39.0635 8.53711H40.7861C41.1895 8.53711 41.7842 8.53027 42.5703 8.5166C43.3564 8.50293 43.9512 8.49609 44.3545 8.49609H46.0771C46.1797 8.49609 46.2651 8.49951 46.3335 8.50635C46.4019 8.50635 46.4839 8.51318 46.5796 8.52686C46.6753 8.54053 46.7505 8.56104 46.8052 8.58838C46.8667 8.61572 46.918 8.65674 46.959 8.71143C47 8.76611 47.0205 8.83105 47.0205 8.90625L51.7476 23.8872C51.7476 24.0239 51.6963 24.1162 51.5938 24.1641C51.498 24.2188 51.3135 24.2461 51.04 24.2461H50.0967C49.8232 24.2461 49.4165 24.2495 48.8765 24.2563C48.3364 24.2632 47.9297 24.2666 47.6562 24.2666C47.5742 24.2666 47.4067 24.27 47.1538 24.2769C46.9077 24.2905 46.6992 24.2939 46.5283 24.2871C46.3574 24.2871 46.166 24.2769 45.9541 24.2563C45.749 24.2427 45.5815 24.2051 45.4517 24.1436C45.3286 24.0889 45.25 24.0137 45.2158 23.918V23.2412C45.1475 22.8994 45.0278 22.585 44.8569 22.2979C44.686 22.0107 44.5049 21.8672 44.3135 21.8672H40.7861L40.2529 24.041C40.1777 24.2051 39.7949 24.2871 39.1045 24.2871H38.2842C37.9902 24.2871 37.5527 24.2974 36.9717 24.3179C36.3906 24.3384 35.9531 24.3486 35.6592 24.3486H35.3721C35.2627 24.3486 35.0884 24.3521 34.8491 24.3589C34.6167 24.3657 34.4355 24.3691 34.3057 24.3691C34.251 24.3145 34.1553 24.1914 34.0186 24ZM41.1348 17.7759L41.4219 18.2578H42.0986C42.6455 18.2578 43.1445 18.2271 43.5957 18.1655C44.0537 18.0972 44.2827 17.9912 44.2827 17.8477L42.96 11.9414C42.8369 11.9414 42.6694 12.1738 42.4575 12.6387C42.2524 13.1035 42.085 13.6299 41.9551 14.2178L41.1348 17.7759ZM52.1475 24.2666C52.1748 22.2773 52.2227 20.8213 52.291 19.8984C52.291 17.0273 52.332 14.1152 52.4141 11.1621C52.3867 10.5879 52.373 10.1641 52.373 9.89062V9.58301C52.3457 9.28223 52.332 9.03613 52.332 8.84473C52.332 8.71484 52.3936 8.59863 52.5166 8.49609C53.6377 8.57812 55.3467 8.61914 57.6436 8.61914C58.1904 8.61914 58.5664 8.60547 58.7715 8.57812V24.2666H52.1475ZM60.7607 24.041V19.4062C60.7471 17.7109 60.8018 14.4775 60.9248 9.70605V8.86523C60.9248 8.71484 60.9521 8.62598 61.0068 8.59863H68.0615C68.1299 8.59863 68.2666 8.8584 68.4717 9.37793C68.6836 9.89746 68.9365 10.5674 69.2305 11.3877C69.5312 12.2012 69.7432 12.7617 69.8662 13.0693L71.3018 16.8223V12.8438C71.3018 12.502 71.3086 11.8765 71.3223 10.9673C71.3428 10.0513 71.3496 9.33691 71.3428 8.82422C71.3428 8.63281 71.8896 8.53711 72.9834 8.53711C73.3252 8.53711 73.7935 8.54395 74.3882 8.55762C74.9829 8.57129 75.3486 8.57812 75.4854 8.57812H76.2646C76.374 8.57812 76.4287 8.59863 76.4287 8.63965C76.4697 10.54 76.4902 13.2607 76.4902 16.8018V23.918C76.4424 24.0957 76.2236 24.1846 75.834 24.1846H75.5674C75.2119 24.1846 74.689 24.1914 73.9985 24.2051C73.3081 24.2188 72.7852 24.2256 72.4297 24.2256H69.415C69.3193 24.1914 69.1211 23.7607 68.8203 22.9336C68.499 22.0381 68.0205 20.7427 67.3848 19.0474C66.749 17.3521 66.3936 16.4053 66.3184 16.207C66.3184 16.6104 66.3149 17.2119 66.3081 18.0117C66.3013 18.8115 66.2979 19.4131 66.2979 19.8164C66.2979 20.1172 66.3047 20.5684 66.3184 21.1699C66.332 21.7715 66.3389 22.2227 66.3389 22.5234V23.8154C66.3389 24.1299 66.2021 24.2871 65.9287 24.2871H61.2119L60.7607 24.041ZM76.4287 8.61914V8.66016V8.61914ZM78.582 23.6309V23.2412C78.582 22.0723 78.5957 20.3462 78.623 18.063C78.6504 15.7798 78.6641 14.0537 78.6641 12.8848V8.63965H90.5996V12.0029C90.5996 12.0234 90.5996 12.0747 90.5996 12.1567C90.5996 12.2388 90.5996 12.2935 90.5996 12.3208C90.5996 12.3481 90.5962 12.3994 90.5894 12.4746C90.5825 12.543 90.5688 12.5908 90.5483 12.6182C90.5347 12.6455 90.5107 12.6865 90.4766 12.7412C90.4492 12.7891 90.415 12.8232 90.374 12.8438C90.333 12.8643 90.2783 12.8848 90.21 12.9053C90.1416 12.9189 90.0664 12.9258 89.9844 12.9258H89.6973C87.9268 12.9258 86.3135 12.8984 84.8574 12.8438C84.8438 12.9531 84.8198 13.124 84.7856 13.3564C84.7583 13.582 84.7344 13.7837 84.7139 13.9614C84.7002 14.1323 84.6934 14.2998 84.6934 14.4639H89.5742C89.7793 14.4639 89.916 14.4912 89.9844 14.5459C90.0527 14.6006 90.0869 14.6895 90.0869 14.8125C90.0869 14.8467 90.0835 14.9014 90.0767 14.9766C90.0698 15.0518 90.0664 15.1064 90.0664 15.1406C90.0664 15.4688 90.0767 15.9541 90.0972 16.5967C90.1177 17.2393 90.1279 17.7246 90.1279 18.0527C90.1074 18.1895 90.0527 18.2578 89.9639 18.2578C89.9229 18.2578 89.8887 18.2441 89.8613 18.2168C87.7012 18.3262 86.1016 18.3809 85.0625 18.3809H84.7959V19.8574C85.4043 19.8574 86.2827 19.8301 87.4312 19.7754C88.5864 19.7207 89.4512 19.6934 90.0254 19.6934C90.4766 19.6934 90.7363 19.7891 90.8047 19.9805V20.7598C90.8047 21.0879 90.8115 21.5732 90.8252 22.2158C90.8389 22.8584 90.8457 23.3438 90.8457 23.6719C90.8457 24.0137 90.709 24.1846 90.4355 24.1846C90.0801 24.1846 89.5332 24.1812 88.7949 24.1743C88.0566 24.1675 87.4961 24.1641 87.1133 24.1641C86.1289 24.1641 84.7207 24.188 82.8887 24.2358C81.0566 24.2905 79.7305 24.3213 78.9102 24.3281L78.623 24C78.5957 23.8086 78.582 23.6855 78.582 23.6309ZM91.9736 23.6309V23.2412C91.9736 22.0723 91.9873 20.3462 92.0146 18.063C92.042 15.7798 92.0557 14.0537 92.0557 12.8848V8.63965H103.991V12.0029C103.991 12.0234 103.991 12.0747 103.991 12.1567C103.991 12.2388 103.991 12.2935 103.991 12.3208C103.991 12.3481 103.988 12.3994 103.981 12.4746C103.974 12.543 103.96 12.5908 103.94 12.6182C103.926 12.6455 103.902 12.6865 103.868 12.7412C103.841 12.7891 103.807 12.8232 103.766 12.8438C103.725 12.8643 103.67 12.8848 103.602 12.9053C103.533 12.9189 103.458 12.9258 103.376 12.9258H103.089C101.318 12.9258 99.7051 12.8984 98.249 12.8438C98.2354 12.9531 98.2114 13.124 98.1772 13.3564C98.1499 13.582 98.126 13.7837 98.1055 13.9614C98.0918 14.1323 98.085 14.2998 98.085 14.4639H102.966C103.171 14.4639 103.308 14.4912 103.376 14.5459C103.444 14.6006 103.479 14.6895 103.479 14.8125C103.479 14.8467 103.475 14.9014 103.468 14.9766C103.461 15.0518 103.458 15.1064 103.458 15.1406C103.458 15.4688 103.468 15.9541 103.489 16.5967C103.509 17.2393 103.52 17.7246 103.52 18.0527C103.499 18.1895 103.444 18.2578 103.355 18.2578C103.314 18.2578 103.28 18.2441 103.253 18.2168C101.093 18.3262 99.4932 18.3809 98.4541 18.3809H98.1875V19.8574C98.7959 19.8574 99.6743 19.8301 100.823 19.7754C101.978 19.7207 102.843 19.6934 103.417 19.6934C103.868 19.6934 104.128 19.7891 104.196 19.9805V20.7598C104.196 21.0879 104.203 21.5732 104.217 22.2158C104.23 22.8584 104.237 23.3438 104.237 23.6719C104.237 24.0137 104.101 24.1846 103.827 24.1846C103.472 24.1846 102.925 24.1812 102.187 24.1743C101.448 24.1675 100.888 24.1641 100.505 24.1641C99.5205 24.1641 98.1123 24.188 96.2803 24.2358C94.4482 24.2905 93.1221 24.3213 92.3018 24.3281L92.0146 24C91.9873 23.8086 91.9736 23.6855 91.9736 23.6309ZM104.258 11.7158C104.258 11.5928 104.265 11.4116 104.278 11.1724C104.292 10.9263 104.299 10.7588 104.299 10.6699C104.299 10.6357 104.292 10.5127 104.278 10.3008C104.265 10.0889 104.258 9.9043 104.258 9.74707C104.258 9.02246 104.326 8.66016 104.463 8.66016C104.518 8.66016 104.565 8.66699 104.606 8.68066C106.035 8.68066 108.151 8.66357 110.954 8.62939C113.763 8.59521 115.865 8.57812 117.26 8.57812C117.608 8.57812 117.827 8.60889 117.916 8.67041C118.012 8.73193 118.06 8.85156 118.06 9.0293V9.31641C118.06 9.67188 118.063 10.1982 118.07 10.8955C118.077 11.5859 118.08 12.1123 118.08 12.4746C118.08 12.8301 117.984 13.0078 117.793 13.0078C117.41 13.0078 116.839 13.001 116.081 12.9873C115.322 12.9736 114.751 12.9668 114.368 12.9668V23.959C114.32 24.1641 114.204 24.2734 114.02 24.2871C113.78 24.2871 113.432 24.2837 112.974 24.2769C112.516 24.27 112.167 24.2666 111.928 24.2666C111.914 24.2666 111.9 24.2734 111.887 24.2871C111.586 24.2871 111.162 24.2837 110.615 24.2769C110.075 24.27 109.672 24.2666 109.405 24.2666H108.79C108.653 24.2803 108.455 24.2871 108.195 24.2871L107.785 23.7949C107.785 22.7559 107.819 21.2109 107.888 19.1602C107.956 17.1094 107.99 15.5645 107.99 14.5254C107.99 14.4775 107.987 14.3989 107.98 14.2896C107.98 14.1802 107.98 14.0913 107.98 14.0229C107.98 13.9546 107.973 13.8691 107.959 13.7666C107.953 13.6641 107.936 13.582 107.908 13.5205C107.888 13.4521 107.86 13.3872 107.826 13.3257C107.792 13.2573 107.744 13.2095 107.683 13.1821C107.628 13.1479 107.56 13.1309 107.478 13.1309H104.545C104.354 13.0762 104.258 12.6045 104.258 11.7158ZM116.296 24C116.72 22.4346 117.188 20.8452 117.701 19.2319C118.213 17.6187 118.849 15.6909 119.608 13.4487C120.374 11.1997 120.896 9.64453 121.177 8.7832C121.259 8.64648 121.313 8.56445 121.341 8.53711H123.063C123.467 8.53711 124.062 8.53027 124.848 8.5166C125.634 8.50293 126.229 8.49609 126.632 8.49609H128.354C128.457 8.49609 128.542 8.49951 128.611 8.50635C128.679 8.50635 128.761 8.51318 128.857 8.52686C128.953 8.54053 129.028 8.56104 129.083 8.58838C129.144 8.61572 129.195 8.65674 129.236 8.71143C129.277 8.76611 129.298 8.83105 129.298 8.90625L134.025 23.8872C134.025 24.0239 133.974 24.1162 133.871 24.1641C133.775 24.2188 133.591 24.2461 133.317 24.2461H132.374C132.101 24.2461 131.694 24.2495 131.154 24.2563C130.614 24.2632 130.207 24.2666 129.934 24.2666C129.852 24.2666 129.684 24.27 129.431 24.2769C129.185 24.2905 128.977 24.2939 128.806 24.2871C128.635 24.2871 128.443 24.2769 128.231 24.2563C128.026 24.2427 127.859 24.2051 127.729 24.1436C127.606 24.0889 127.527 24.0137 127.493 23.918V23.2412C127.425 22.8994 127.305 22.585 127.134 22.2979C126.963 22.0107 126.782 21.8672 126.591 21.8672H123.063L122.53 24.041C122.455 24.2051 122.072 24.2871 121.382 24.2871H120.562C120.268 24.2871 119.83 24.2974 119.249 24.3179C118.668 24.3384 118.23 24.3486 117.937 24.3486H117.649C117.54 24.3486 117.366 24.3521 117.126 24.3589C116.894 24.3657 116.713 24.3691 116.583 24.3691C116.528 24.3145 116.433 24.1914 116.296 24ZM123.412 17.7759L123.699 18.2578H124.376C124.923 18.2578 125.422 18.2271 125.873 18.1655C126.331 18.0972 126.56 17.9912 126.56 17.8477L125.237 11.9414C125.114 11.9414 124.947 12.1738 124.735 12.6387C124.53 13.1035 124.362 13.6299 124.232 14.2178L123.412 17.7759ZM134.63 10.3008C134.63 9.18652 134.746 8.56445 134.979 8.43457C135.047 8.44824 135.143 8.45508 135.266 8.45508H135.594C135.806 8.45508 136.154 8.44824 136.64 8.43457C137.125 8.4209 137.494 8.41406 137.747 8.41406C138.718 8.41406 139.5 8.45508 140.095 8.53711C140.697 8.6123 141.035 8.75586 141.11 8.96777L140.987 19.5498H141.213C141.76 19.5225 142.143 19.5122 142.361 19.519C142.58 19.519 142.98 19.5327 143.561 19.5601C144.149 19.5806 144.713 19.5908 145.253 19.5908C145.697 19.5908 146.025 19.6182 146.237 19.6729C146.456 19.7207 146.565 19.8232 146.565 19.9805V23.918C146.477 24.1641 144.952 24.2871 141.992 24.2871H134.896C134.732 24.0479 134.65 23.665 134.65 23.1387V20.2266C134.65 19.3721 134.657 18.1074 134.671 16.4326C134.685 14.7578 134.691 13.4932 134.691 12.6387C134.691 12.4814 134.681 12.1328 134.661 11.5928C134.64 11.0527 134.63 10.6221 134.63 10.3008ZM147.488 23.6309V23.2412C147.488 22.0723 147.502 20.3462 147.529 18.063C147.557 15.7798 147.57 14.0537 147.57 12.8848V8.63965H159.506V12.0029C159.506 12.0234 159.506 12.0747 159.506 12.1567C159.506 12.2388 159.506 12.2935 159.506 12.3208C159.506 12.3481 159.502 12.3994 159.496 12.4746C159.489 12.543 159.475 12.5908 159.455 12.6182C159.441 12.6455 159.417 12.6865 159.383 12.7412C159.355 12.7891 159.321 12.8232 159.28 12.8438C159.239 12.8643 159.185 12.8848 159.116 12.9053C159.048 12.9189 158.973 12.9258 158.891 12.9258H158.604C156.833 12.9258 155.22 12.8984 153.764 12.8438C153.75 12.9531 153.726 13.124 153.692 13.3564C153.665 13.582 153.641 13.7837 153.62 13.9614C153.606 14.1323 153.6 14.2998 153.6 14.4639H158.48C158.686 14.4639 158.822 14.4912 158.891 14.5459C158.959 14.6006 158.993 14.6895 158.993 14.8125C158.993 14.8467 158.99 14.9014 158.983 14.9766C158.976 15.0518 158.973 15.1064 158.973 15.1406C158.973 15.4688 158.983 15.9541 159.003 16.5967C159.024 17.2393 159.034 17.7246 159.034 18.0527C159.014 18.1895 158.959 18.2578 158.87 18.2578C158.829 18.2578 158.795 18.2441 158.768 18.2168C156.607 18.3262 155.008 18.3809 153.969 18.3809H153.702V19.8574C154.311 19.8574 155.189 19.8301 156.337 19.7754C157.493 19.7207 158.357 19.6934 158.932 19.6934C159.383 19.6934 159.643 19.7891 159.711 19.9805V20.7598C159.711 21.0879 159.718 21.5732 159.731 22.2158C159.745 22.8584 159.752 23.3438 159.752 23.6719C159.752 24.0137 159.615 24.1846 159.342 24.1846C158.986 24.1846 158.439 24.1812 157.701 24.1743C156.963 24.1675 156.402 24.1641 156.02 24.1641C155.035 24.1641 153.627 24.188 151.795 24.2358C149.963 24.2905 148.637 24.3213 147.816 24.3281L147.529 24C147.502 23.8086 147.488 23.6855 147.488 23.6309ZM160.757 24.041V19.4062C160.743 17.7109 160.798 14.4775 160.921 9.70605V8.86523C160.921 8.71484 160.948 8.62598 161.003 8.59863H168.058C168.126 8.59863 168.263 8.8584 168.468 9.37793C168.68 9.89746 168.933 10.5674 169.227 11.3877C169.527 12.2012 169.739 12.7617 169.862 13.0693L171.298 16.8223V12.8438C171.298 12.502 171.305 11.8765 171.318 10.9673C171.339 10.0513 171.346 9.33691 171.339 8.82422C171.339 8.63281 171.886 8.53711 172.979 8.53711C173.321 8.53711 173.79 8.54395 174.384 8.55762C174.979 8.57129 175.345 8.57812 175.481 8.57812H176.261C176.37 8.57812 176.425 8.59863 176.425 8.63965C176.466 10.54 176.486 13.2607 176.486 16.8018V23.918C176.438 24.0957 176.22 24.1846 175.83 24.1846H175.563C175.208 24.1846 174.685 24.1914 173.995 24.2051C173.304 24.2188 172.781 24.2256 172.426 24.2256H169.411C169.315 24.1914 169.117 23.7607 168.816 22.9336C168.495 22.0381 168.017 20.7427 167.381 19.0474C166.745 17.3521 166.39 16.4053 166.314 16.207C166.314 16.6104 166.311 17.2119 166.304 18.0117C166.297 18.8115 166.294 19.4131 166.294 19.8164C166.294 20.1172 166.301 20.5684 166.314 21.1699C166.328 21.7715 166.335 22.2227 166.335 22.5234V23.8154C166.335 24.1299 166.198 24.2871 165.925 24.2871H161.208L160.757 24.041ZM176.425 8.61914V8.66016V8.61914ZM177.471 11.7158C177.471 11.5928 177.478 11.4116 177.491 11.1724C177.505 10.9263 177.512 10.7588 177.512 10.6699C177.512 10.6357 177.505 10.5127 177.491 10.3008C177.478 10.0889 177.471 9.9043 177.471 9.74707C177.471 9.02246 177.539 8.66016 177.676 8.66016C177.73 8.66016 177.778 8.66699 177.819 8.68066C179.248 8.68066 181.364 8.66357 184.167 8.62939C186.976 8.59521 189.078 8.57812 190.473 8.57812C190.821 8.57812 191.04 8.60889 191.129 8.67041C191.225 8.73193 191.272 8.85156 191.272 9.0293V9.31641C191.272 9.67188 191.276 10.1982 191.283 10.8955C191.29 11.5859 191.293 12.1123 191.293 12.4746C191.293 12.8301 191.197 13.0078 191.006 13.0078C190.623 13.0078 190.052 13.001 189.293 12.9873C188.535 12.9736 187.964 12.9668 187.581 12.9668V23.959C187.533 24.1641 187.417 24.2734 187.232 24.2871C186.993 24.2871 186.645 24.2837 186.187 24.2769C185.729 24.27 185.38 24.2666 185.141 24.2666C185.127 24.2666 185.113 24.2734 185.1 24.2871C184.799 24.2871 184.375 24.2837 183.828 24.2769C183.288 24.27 182.885 24.2666 182.618 24.2666H182.003C181.866 24.2803 181.668 24.2871 181.408 24.2871L180.998 23.7949C180.998 22.7559 181.032 21.2109 181.101 19.1602C181.169 17.1094 181.203 15.5645 181.203 14.5254C181.203 14.4775 181.2 14.3989 181.193 14.2896C181.193 14.1802 181.193 14.0913 181.193 14.0229C181.193 13.9546 181.186 13.8691 181.172 13.7666C181.166 13.6641 181.148 13.582 181.121 13.5205C181.101 13.4521 181.073 13.3872 181.039 13.3257C181.005 13.2573 180.957 13.2095 180.896 13.1821C180.841 13.1479 180.772 13.1309 180.69 13.1309H177.758C177.566 13.0762 177.471 12.6045 177.471 11.7158ZM190.062 23.8564V23.5488C190.062 23.4463 190.066 23.2856 190.073 23.0669C190.08 22.8413 190.083 22.6602 190.083 22.5234V21.9902C190.083 20.3223 190.192 19.4883 190.411 19.4883H194.615C195.271 19.4883 195.6 19.584 195.6 19.7754C195.627 21.0879 195.641 22.0928 195.641 22.79V23.1387C195.641 23.1865 195.644 23.2617 195.651 23.3643C195.658 23.46 195.661 23.5352 195.661 23.5898C195.661 23.9727 195.586 24.1641 195.436 24.1641H190.391L190.062 23.8564ZM212.519 18.5039C212.402 19.5293 212.132 20.4385 211.708 21.2314C211.285 22.0176 210.741 22.6602 210.078 23.1592C209.415 23.6514 208.66 24.0239 207.812 24.2769C206.971 24.5298 206.052 24.6562 205.054 24.6562C204.124 24.6562 203.276 24.5537 202.511 24.3486C201.745 24.1504 201.099 23.8838 200.573 23.5488C200.046 23.2139 199.582 22.8071 199.178 22.3286C198.775 21.8433 198.454 21.3477 198.214 20.8418C197.975 20.3291 197.78 19.772 197.63 19.1704C197.486 18.562 197.387 17.998 197.333 17.4785C197.285 16.9521 197.261 16.4053 197.261 15.8379V14.9355C197.329 13.9375 197.562 13.042 197.958 12.249C198.354 11.4492 198.836 10.8066 199.404 10.3213C199.971 9.8291 200.621 9.42236 201.352 9.10107C202.083 8.77295 202.794 8.54736 203.485 8.42432C204.175 8.29443 204.862 8.22949 205.546 8.22949C206.646 8.22949 207.617 8.36279 208.458 8.62939C209.306 8.88916 209.996 9.2583 210.529 9.73682C211.062 10.2153 211.479 10.7656 211.78 11.3877C212.081 12.0029 212.272 12.6934 212.354 13.459V14.4434C212.354 14.6621 211.603 14.7715 210.099 14.7715C209.743 14.7715 209.248 14.7646 208.612 14.751C207.983 14.7373 207.569 14.7305 207.371 14.7305C207.337 14.7305 207.286 14.7339 207.217 14.7407C207.149 14.7476 207.098 14.751 207.063 14.751C206.886 14.751 206.749 14.6792 206.653 14.5356C206.564 14.3853 206.503 14.2041 206.469 13.9922C206.441 13.7803 206.404 13.5684 206.356 13.3564C206.315 13.1445 206.223 12.9668 206.079 12.8232C205.942 12.6729 205.751 12.5977 205.505 12.5977C205.259 12.5977 205.043 12.6387 204.859 12.7207C204.674 12.8027 204.527 12.9326 204.418 13.1104C204.309 13.2812 204.216 13.4556 204.141 13.6333C204.073 13.811 204.021 14.0435 203.987 14.3306C203.96 14.6108 203.939 14.8501 203.926 15.0483C203.919 15.2397 203.912 15.4995 203.905 15.8276C203.898 16.1489 203.892 16.3848 203.885 16.5352C203.885 16.6172 203.878 16.7676 203.864 16.9863C203.851 17.2051 203.844 17.3828 203.844 17.5195C203.844 19.2217 204.295 20.0967 205.197 20.1445C205.443 20.1445 205.645 20.0557 205.802 19.8779C205.959 19.7002 206.065 19.502 206.12 19.2832C206.182 19.0645 206.25 18.8354 206.325 18.5962C206.4 18.3501 206.482 18.1826 206.571 18.0938H212.149C212.375 18.1143 212.498 18.251 212.519 18.5039ZM213.052 16.2891V15.1611C213.12 14.2041 213.329 13.3325 213.677 12.5464C214.026 11.7534 214.467 11.0869 215 10.5469C215.54 10.0068 216.162 9.55225 216.866 9.18311C217.57 8.80713 218.305 8.53369 219.071 8.36279C219.843 8.19189 220.64 8.10645 221.46 8.10645C221.911 8.10645 222.379 8.14404 222.865 8.21924C223.357 8.29443 223.876 8.41406 224.423 8.57812C224.97 8.74219 225.493 8.98486 225.992 9.30615C226.498 9.62061 226.915 9.99316 227.243 10.4238C227.92 11.251 228.409 12.1191 228.709 13.0283C229.017 13.9307 229.171 14.9355 229.171 16.043C229.191 18.3535 228.686 20.2129 227.653 21.6211L227.202 22.2363C226.806 22.7832 226.238 23.2412 225.5 23.6104C224.762 23.9727 224.023 24.2222 223.285 24.3589C222.547 24.5024 221.802 24.5742 221.05 24.5742C220.168 24.5742 219.354 24.4854 218.609 24.3076C217.864 24.1299 217.222 23.8906 216.682 23.5898C216.142 23.2891 215.66 22.9233 215.236 22.4927C214.812 22.062 214.463 21.6074 214.19 21.1289C213.923 20.6504 213.701 20.1309 213.523 19.5703C213.353 19.0098 213.229 18.4629 213.154 17.9297C213.086 17.3965 213.052 16.8496 213.052 16.2891ZM221.214 12.2285C220.934 12.2285 220.681 12.2935 220.455 12.4233C220.236 12.5532 220.055 12.7104 219.912 12.895C219.775 13.0796 219.655 13.3291 219.553 13.6436C219.45 13.9512 219.375 14.2314 219.327 14.4844C219.279 14.7305 219.242 15.0449 219.214 15.4277C219.187 15.8037 219.17 16.0977 219.163 16.3096C219.163 16.5146 219.163 16.7812 219.163 17.1094C219.163 17.4238 219.173 17.7246 219.194 18.0117C219.221 18.292 219.272 18.5928 219.348 18.9141C219.43 19.2285 219.532 19.5054 219.655 19.7446C219.785 19.9771 219.959 20.1753 220.178 20.3394C220.404 20.4966 220.66 20.582 220.947 20.5957C221.248 20.5957 221.515 20.5479 221.747 20.4521C221.979 20.3496 222.174 20.2231 222.332 20.0728C222.489 19.9155 222.622 19.707 222.731 19.4473C222.841 19.1875 222.923 18.938 222.978 18.6987C223.039 18.4595 223.083 18.1621 223.111 17.8066C223.145 17.4512 223.166 17.147 223.172 16.894C223.179 16.6343 223.183 16.3096 223.183 15.9199C223.183 15.6328 223.172 15.3662 223.152 15.1201C223.138 14.874 223.111 14.6006 223.07 14.2998C223.029 13.999 222.96 13.7358 222.865 13.5103C222.769 13.2778 222.653 13.0625 222.516 12.8643C222.379 12.6592 222.198 12.502 221.973 12.3926C221.754 12.2832 221.501 12.2285 221.214 12.2285ZM251.278 20.165C251.278 20.2881 251.285 20.4795 251.299 20.7393C251.312 20.9922 251.323 21.2349 251.33 21.4673C251.336 21.6997 251.34 21.9595 251.34 22.2466C251.347 22.5269 251.336 22.7832 251.309 23.0156C251.289 23.2412 251.254 23.4565 251.207 23.6616C251.159 23.8599 251.083 24.0137 250.981 24.123C250.885 24.2324 250.766 24.2871 250.622 24.2871H245.946C245.618 24.0342 245.454 23.0908 245.454 21.457C245.454 20.8623 245.458 20.1479 245.464 19.314C245.471 18.4731 245.475 17.875 245.475 17.5195V16.8018C245.475 16.7402 245.468 16.624 245.454 16.4531C245.447 16.2754 245.447 16.1387 245.454 16.043C245.181 17.0342 244.846 18.4526 244.449 20.2983C244.053 22.144 243.779 23.3779 243.629 24C243.561 24.1914 243.246 24.2871 242.686 24.2871H239.056C238.611 24.2871 238.352 24.1709 238.276 23.9385L237.292 19.6523C237.203 19.2148 237.104 18.7603 236.995 18.2886C236.892 17.8169 236.769 17.2803 236.625 16.6787C236.482 16.0771 236.376 15.6328 236.308 15.3457C236.226 17.5332 236.185 19.2012 236.185 20.3496V22.1543C236.185 22.9609 236.191 23.5693 236.205 23.9795C236.164 24.1299 236.089 24.2051 235.979 24.2051H235.016C234.612 24.2051 234.021 24.2085 233.242 24.2153C232.462 24.2222 231.871 24.2256 231.468 24.2256C231.099 24.2256 230.914 24.1641 230.914 24.041V8.82422C230.914 8.7627 230.928 8.71143 230.955 8.67041C230.989 8.62256 231.037 8.58838 231.099 8.56787C231.167 8.54053 231.232 8.52002 231.293 8.50635C231.355 8.49268 231.434 8.48584 231.529 8.48584C231.625 8.479 231.704 8.47559 231.765 8.47559C231.827 8.46875 231.905 8.46875 232.001 8.47559C232.097 8.47559 232.158 8.47559 232.186 8.47559H233.396C235.344 8.47559 236.714 8.50293 237.507 8.55762C238.307 8.6123 238.919 8.63965 239.343 8.63965C239.507 9.55566 239.767 10.916 240.122 12.7207L240.901 16.8018L242.542 8.5166C242.542 8.5166 242.569 8.52344 242.624 8.53711C242.679 8.55078 242.72 8.55762 242.747 8.55762C243.479 8.55762 244.559 8.54736 245.987 8.52686C247.416 8.50635 248.496 8.49609 249.228 8.49609H250.745C250.937 8.5166 251.032 8.70801 251.032 9.07031C251.183 15.6943 251.265 19.3926 251.278 20.165Z" fill="white"/>
<path d="M190.258 23.8428V23.5059C190.258 23.3936 190.262 23.2176 190.269 22.978C190.277 22.731 190.28 22.5326 190.28 22.3828V21.7988C190.28 19.972 190.4 19.0586 190.64 19.0586H195.244C195.963 19.0586 196.322 19.1634 196.322 19.373C196.352 20.8105 196.367 21.9111 196.367 22.6748V23.0566C196.367 23.109 196.371 23.1914 196.378 23.3037C196.386 23.4085 196.39 23.4909 196.39 23.5508C196.39 23.9701 196.307 24.1797 196.143 24.1797H190.617L190.258 23.8428Z" fill="#10B981"/>
</g>
<defs>
<filter id="filter0_d_106_2" x="0.835938" y="8.10645" width="254.514" height="24.5498" filterUnits="userSpaceOnUse" color-interpolation-filters="sRGB">
<feFlood flood-opacity="0" result="BackgroundImageFix"/>
<feColorMatrix in="SourceAlpha" type="matrix" values="0 0 0 0 0 0 0 0 0 0 0 0 0 0 0 0 0 0 127 0" result="hardAlpha"/>
<feOffset dy="4"/>
<feGaussianBlur stdDeviation="2"/>
<feComposite in2="hardAlpha" operator="out"/>
<feColorMatrix type="matrix" values="0 0 0 0 0 0 0 0 0 0 0 0 0 0 0 0 0 0 0.25 0"/>
<feBlend mode="normal" in2="BackgroundImageFix" result="effect1_dropShadow_106_2"/>
<feBlend mode="normal" in="SourceGraphic" in2="effect1_dropShadow_106_2" result="shape"/>
</filter>
</defs>
</svg>
