<svg width="1969" height="1200" viewBox="0 0 1969 1200" fill="none" xmlns="http://www.w3.org/2000/svg">
<rect width="1969" height="1201" fill="url(#paint0_linear_106_34)"/>
<path d="M58.9856 416.781L130.467 398H189.453L245.938 416.781L286.928 445.995L321.419 500.945L358 562.5L404.898 597.631L455.885 616.411H525.867H595.35L691.825 573.981L787.301 511.379L843.287 482.86L912.769 466.167H982.252L1059.73 472.427L1121.72 491.903L1180.2 522.508L1239.19 562.852L1299.67 616.411L1356.66 654.668L1418.64 680.404L1500.12 695.011H1583.1L1657.08 669.275L1723.56 631.018L1787.05 616.411H1853.03L1917.52 654.668L1977 714.487V1200H2V445.995L58.9856 416.781Z" fill="#2BBE7F" fill-opacity="0.9"/>
<path d="M58.9856 416.781L130.467 398H189.453L245.938 416.781L286.928 445.995L321.419 500.945L358 562.5L404.898 597.631L455.885 616.411H525.867H595.35L691.825 573.981L787.301 511.379L843.287 482.86L912.769 466.167H982.252L1059.73 472.427L1121.72 491.903L1180.2 522.508L1239.19 562.852L1299.67 616.411L1356.66 654.668L1418.64 680.404L1500.12 695.011H1583.1L1657.08 669.275L1723.56 631.018L1787.05 616.411H1853.03L1917.52 654.668L1977 714.487V1200H2V445.995L58.9856 416.781Z" fill="#2BBE7F" fill-opacity="0.9"/>
<path d="M58.5 637L130 623.5H189L245.5 637L286.5 658L321 697.5L363 741.5L404.5 767L455.5 780.5H525.5H595L691.5 750L787 705L843 684.5L912.5 672.5H982L1059.5 677L1121.5 691L1180 713L1239 742L1299.5 780.5L1356.5 808L1418.5 826.5L1500 837H1583L1657 818.5L1723.5 791L1787 780.5H1853L1917.5 808L1977 851V1200H1.5V658L58.5 637Z" fill="#36DE96" fill-opacity="0.83"/>
<path d="M58.5 637L130 623.5H189L245.5 637L286.5 658L321 697.5L363 741.5L404.5 767L455.5 780.5H525.5H595L691.5 750L787 705L843 684.5L912.5 672.5H982L1059.5 677L1121.5 691L1180 713L1239 742L1299.5 780.5L1356.5 808L1418.5 826.5L1500 837H1583L1657 818.5L1723.5 791L1787 780.5H1853L1917.5 808L1977 851V1200H1.5V658L58.5 637Z" fill="#36DE96" fill-opacity="0.83"/>
<path d="M70.0144 839.664L141.533 831H200.547L257.062 839.664L298.072 853.142L332.581 878.493L364.089 912.83L406 948.5L456.5 968.025L525.5 977.01L599.5 968.025L695 931.763L783 888.441L854.713 870.15L924.231 862.448H993.748L1071.27 865.337L1133.28 874.322L1191.8 888.441L1250.81 907.054L1311.33 931.763L1363.5 957.5L1447.5 999L1474 1008.5L1506.5 1015L1551 1021H1597.5L1634 1015L1671 1002.5L1702.5 988.5L1733 977.01L1768.5 966L1805.5 960.5H1835L1863.5 963L1900 969L1932 977.01L1989 999V1201H13V853.142L70.0144 839.664Z" fill="#70FFC2"/>
<path d="M70.0144 839.664L141.533 831H200.547L257.062 839.664L298.072 853.142L332.581 878.493L364.089 912.83L406 948.5L456.5 968.025L525.5 977.01L599.5 968.025L695 931.763L783 888.441L854.713 870.15L924.231 862.448H993.748L1071.27 865.337L1133.28 874.322L1191.8 888.441L1250.81 907.054L1311.33 931.763L1363.5 957.5L1447.5 999L1474 1008.5L1506.5 1015L1551 1021H1597.5L1634 1015L1671 1002.5L1702.5 988.5L1733 977.01L1768.5 966L1805.5 960.5H1835L1863.5 963L1900 969L1932 977.01L1989 999V1201H13V853.142L70.0144 839.664Z" fill="#70FFC2"/>
<defs>
<linearGradient id="paint0_linear_106_34" x1="984.5" y1="0" x2="984.5" y2="1201" gradientUnits="userSpaceOnUse">
<stop stop-color="#35DC95" stop-opacity="0.61"/>
<stop offset="0.557292" stop-color="#26A56E"/>
</linearGradient>
</defs>
</svg>
